<svg width="22" height="15" viewBox="0 0 22 15" fill="none" xmlns="http://www.w3.org/2000/svg">
<path d="M7.73292 11.7L19.0329 0.4C19.2996 0.133334 19.6107 0 19.9663 0C20.3218 0 20.6329 0.133334 20.8996 0.4C21.1663 0.666667 21.2996 0.983556 21.2996 1.35067C21.2996 1.71778 21.1663 2.03422 20.8996 2.3L8.66626 14.5667C8.39959 14.8333 8.08848 14.9667 7.73292 14.9667C7.37737 14.9667 7.06626 14.8333 6.79959 14.5667L1.06626 8.83333C0.799589 8.56667 0.671589 8.25022 0.682256 7.884C0.692923 7.51778 0.832033 7.20089 1.09959 6.93333C1.36714 6.66578 1.68403 6.53244 2.05026 6.53333C2.41648 6.53422 2.73292 6.66756 2.99959 6.93333L7.73292 11.7Z" fill="white"/>
</svg>
