<svg width="370" height="92" viewBox="0 0 370 92" fill="none" xmlns="http://www.w3.org/2000/svg">
<g clip-path="url(#clip0_31_285)">
<path d="M68.4 91.2001H22.8C10.26 91.2001 0 80.9401 0 68.4001V22.8001C0 10.2601 10.26 9.91821e-05 22.8 9.91821e-05H68.4C80.94 9.91821e-05 91.2 10.2601 91.2 22.8001V68.4001C91.2 80.9401 80.94 91.2001 68.4 91.2001Z" fill="#68ED83"/>
<path d="M15.96 47.1202H22.04V75.2402H15.96V47.1202ZM25.46 53.2002H31.54V74.8602H25.46V53.2002ZM60.04 34.5802H66.12V74.8602H60.04C59.66 74.8602 59.66 34.5802 60.04 34.5802ZM68.78 41.0402H74.86V75.2402H68.78V41.0402ZM38 15.9602H44.08V75.2402H38V15.9602ZM47.12 22.4202H53.2V75.2402H47.12V22.4202Z" fill="#011432"/>
</g>
<path d="M114.904 65.6V25.7H128.641C130.788 25.7 132.726 26.232 134.455 27.296C136.203 28.36 137.59 29.7945 138.616 31.5995C139.661 33.4045 140.184 35.3995 140.184 37.5845C140.184 39.8075 139.652 41.8215 138.588 43.6265C137.543 45.4125 136.146 46.8375 134.398 47.9015C132.65 48.9655 130.731 49.4975 128.641 49.4975H120.832V65.6H114.904ZM120.832 43.5695H128.043C129.183 43.5695 130.218 43.2845 131.149 42.7145C132.099 42.1445 132.85 41.3845 133.401 40.4345C133.971 39.4845 134.256 38.411 134.256 37.214C134.256 36.017 133.971 34.9435 133.401 33.9935C132.85 33.0245 132.099 32.2645 131.149 31.7135C130.218 31.1435 129.183 30.8585 128.043 30.8585H120.832V43.5695ZM145.992 65.6V37.1H151.92V40.121C152.908 38.943 154.124 38.012 155.568 37.328C157.012 36.644 158.57 36.302 160.242 36.302C161.306 36.302 162.36 36.4445 163.405 36.7295L161.04 42.7145C160.299 42.4295 159.558 42.287 158.817 42.287C157.563 42.287 156.413 42.6005 155.368 43.2275C154.323 43.8355 153.487 44.662 152.86 45.707C152.233 46.752 151.92 47.911 151.92 49.184V65.6H145.992ZM179.043 66.341C176.421 66.341 174.027 65.6665 171.861 64.3175C169.714 62.9685 167.994 61.1635 166.702 58.9025C165.429 56.6225 164.793 54.105 164.793 51.35C164.793 49.26 165.163 47.3125 165.904 45.5075C166.645 43.6835 167.662 42.0875 168.954 40.7195C170.265 39.3325 171.785 38.2495 173.514 37.4705C175.243 36.6915 177.086 36.302 179.043 36.302C181.665 36.302 184.049 36.9765 186.196 38.3255C188.362 39.6745 190.082 41.489 191.355 43.769C192.647 46.049 193.293 48.576 193.293 51.35C193.293 53.421 192.922 55.359 192.181 57.164C191.44 58.969 190.414 60.565 189.103 61.952C187.811 63.32 186.301 64.3935 184.572 65.1725C182.862 65.9515 181.019 66.341 179.043 66.341ZM179.043 60.413C180.62 60.413 182.035 59.995 183.289 59.159C184.543 58.323 185.531 57.221 186.253 55.853C186.994 54.466 187.365 52.965 187.365 51.35C187.365 49.697 186.985 48.177 186.225 46.79C185.484 45.403 184.486 44.301 183.232 43.484C181.978 42.648 180.582 42.23 179.043 42.23C177.485 42.23 176.069 42.648 174.796 43.484C173.542 44.32 172.545 45.4315 171.804 46.8185C171.082 48.2055 170.721 49.716 170.721 51.35C170.721 53.041 171.101 54.5705 171.861 55.9385C172.621 57.3065 173.628 58.399 174.882 59.216C176.155 60.014 177.542 60.413 179.043 60.413ZM206.863 30.6305V37.1H214.9V43.028H206.863V65.6H200.935V43.028H197.543V37.1H200.935V30.6305C200.935 29.0725 201.315 27.657 202.075 26.384C202.835 25.092 203.851 24.066 205.124 23.306C206.416 22.546 207.851 22.166 209.428 22.166C210.568 22.166 211.679 22.394 212.762 22.85C213.845 23.306 214.814 24.009 215.669 24.959L211.423 29.1485C211.214 28.8065 210.919 28.55 210.539 28.379C210.178 28.189 209.808 28.094 209.428 28.094C208.725 28.094 208.117 28.341 207.604 28.835C207.11 29.329 206.863 29.9275 206.863 30.6305ZM220.439 37.1H226.367V65.6H220.439V37.1ZM223.46 32.9675C222.548 32.9675 221.788 32.673 221.18 32.084C220.572 31.495 220.268 30.754 220.268 29.861C220.268 28.987 220.572 28.2555 221.18 27.6665C221.788 27.0585 222.538 26.7545 223.431 26.7545C224.305 26.7545 225.046 27.0585 225.654 27.6665C226.262 28.2555 226.566 28.987 226.566 29.861C226.566 30.754 226.262 31.495 225.654 32.084C225.065 32.673 224.334 32.9675 223.46 32.9675ZM249.374 43.028H243.389L243.36 65.6H237.432L237.461 43.028H232.929V37.1H237.461L237.432 28.151H243.36L243.389 37.1H249.374V43.028ZM255.616 65.6V25.7H269.353C271.5 25.7 273.438 26.232 275.167 27.296C276.915 28.36 278.302 29.7945 279.328 31.5995C280.373 33.4045 280.896 35.3995 280.896 37.5845C280.896 39.8075 280.364 41.8215 279.3 43.6265C278.255 45.4125 276.858 46.8375 275.11 47.9015C273.362 48.9655 271.443 49.4975 269.353 49.4975H261.544V65.6H255.616ZM261.544 43.5695H268.755C269.895 43.5695 270.93 43.2845 271.861 42.7145C272.811 42.1445 273.562 41.3845 274.113 40.4345C274.683 39.4845 274.968 38.411 274.968 37.214C274.968 36.017 274.683 34.9435 274.113 33.9935C273.562 33.0245 272.811 32.2645 271.861 31.7135C270.93 31.1435 269.895 30.8585 268.755 30.8585H261.544V43.5695ZM307.485 37.1H313.413V65.6H307.456L307.228 61.4675C306.392 62.9305 305.262 64.1085 303.837 65.0015C302.412 65.8945 300.73 66.341 298.792 66.341C296.702 66.341 294.736 65.9515 292.893 65.1725C291.05 64.3745 289.425 63.2725 288.019 61.8665C286.632 60.4605 285.549 58.8455 284.77 57.0215C283.991 55.1785 283.602 53.2025 283.602 51.0935C283.602 49.0605 283.982 47.151 284.742 45.365C285.502 43.56 286.556 41.983 287.905 40.634C289.254 39.285 290.812 38.2305 292.579 37.4705C294.365 36.6915 296.275 36.302 298.308 36.302C300.379 36.302 302.203 36.777 303.78 37.727C305.376 38.658 306.696 39.855 307.741 41.318L307.485 37.1ZM298.65 60.6125C300.322 60.6125 301.785 60.204 303.039 59.387C304.293 58.551 305.262 57.43 305.946 56.024C306.649 54.618 307 53.06 307 51.35C307 49.621 306.649 48.0535 305.946 46.6475C305.243 45.2415 304.264 44.13 303.01 43.313C301.775 42.477 300.322 42.059 298.65 42.059C296.997 42.059 295.486 42.477 294.118 43.313C292.75 44.149 291.667 45.27 290.869 46.676C290.071 48.082 289.672 49.64 289.672 51.35C289.672 53.079 290.081 54.6465 290.898 56.0525C291.734 57.4395 292.826 58.551 294.175 59.387C295.543 60.204 297.035 60.6125 298.65 60.6125ZM335.288 43.028H329.303L329.275 65.6H323.347L323.375 43.028H318.844V37.1H323.375L323.347 28.151H329.275L329.303 37.1H335.288V43.028ZM367.18 47.7305V65.6H361.252V49.184C361.252 47.911 360.939 46.752 360.312 45.707C359.704 44.662 358.877 43.8355 357.832 43.2275C356.806 42.6005 355.647 42.287 354.355 42.287C353.101 42.287 351.952 42.6005 350.907 43.2275C349.862 43.8355 349.026 44.662 348.399 45.707C347.772 46.752 347.458 47.911 347.458 49.184V65.6H341.53V22.85H347.458V40.121C348.446 38.943 349.662 38.012 351.106 37.328C352.55 36.644 354.108 36.302 355.78 36.302C357.889 36.302 359.808 36.815 361.537 37.841C363.266 38.867 364.634 40.2445 365.641 41.9735C366.667 43.7025 367.18 45.6215 367.18 47.7305Z" fill="#F5F6F7"/>
<defs>
<clipPath id="clip0_31_285">
<rect width="91.2" height="91.2" fill="white"/>
</clipPath>
</defs>
</svg>
