<svg width="146" height="36" viewBox="0 0 146 36" fill="none" xmlns="http://www.w3.org/2000/svg">
<g clip-path="url(#clip0_31_265)">
<path d="M27 36H9C4.05 36 0 31.95 0 27V9C0 4.05 4.05 0 9 0H27C31.95 0 36 4.05 36 9V27C36 31.95 31.95 36 27 36Z" fill="#68ED83"/>
<path d="M6.2998 18.5998H8.69981V29.6998H6.2998V18.5998ZM10.0498 20.9998H12.4498V29.5498H10.0498V20.9998ZM23.6998 13.6498H26.0998V29.5498H23.6998C23.5498 29.5498 23.5498 13.6498 23.6998 13.6498ZM27.1498 16.1998H29.5498V29.6998H27.1498V16.1998ZM14.9998 6.2998H17.3998V29.6998H14.9998V6.2998ZM18.5998 8.84981H20.9998V29.6998H18.5998V8.84981Z" fill="#011432"/>
</g>
<path d="M45.4358 26V10.25H50.8583C51.7058 10.25 52.4708 10.46 53.1533 10.88C53.8433 11.3 54.3908 11.8662 54.7958 12.5787C55.2083 13.2912 55.4146 14.0787 55.4146 14.9412C55.4146 15.8187 55.2046 16.6137 54.7846 17.3262C54.3721 18.0312 53.8208 18.5937 53.1308 19.0137C52.4408 19.4337 51.6833 19.6438 50.8583 19.6438H47.7758V26H45.4358ZM47.7758 17.3037H50.6221C51.0721 17.3037 51.4808 17.1912 51.8483 16.9662C52.2233 16.7412 52.5196 16.4412 52.7371 16.0662C52.9621 15.6912 53.0746 15.2675 53.0746 14.795C53.0746 14.3225 52.9621 13.8987 52.7371 13.5237C52.5196 13.1412 52.2233 12.8412 51.8483 12.6237C51.4808 12.3987 51.0721 12.2862 50.6221 12.2862H47.7758V17.3037ZM57.7071 26V14.75H60.0471V15.9425C60.4371 15.4775 60.9171 15.11 61.4871 14.84C62.0571 14.57 62.6721 14.435 63.3321 14.435C63.7521 14.435 64.1684 14.4912 64.5809 14.6037L63.6471 16.9662C63.3546 16.8537 63.0621 16.7975 62.7696 16.7975C62.2746 16.7975 61.8209 16.9212 61.4084 17.1687C60.9959 17.4087 60.6659 17.735 60.4184 18.1475C60.1709 18.56 60.0471 19.0175 60.0471 19.52V26H57.7071ZM70.7536 26.2925C69.7186 26.2925 68.7736 26.0262 67.9186 25.4937C67.0711 24.9612 66.3924 24.2487 65.8824 23.3562C65.3799 22.4562 65.1286 21.4625 65.1286 20.375C65.1286 19.55 65.2749 18.7812 65.5674 18.0687C65.8599 17.3487 66.2611 16.7187 66.7711 16.1787C67.2886 15.6312 67.8886 15.2037 68.5711 14.8962C69.2536 14.5887 69.9811 14.435 70.7536 14.435C71.7886 14.435 72.7299 14.7012 73.5774 15.2337C74.4324 15.7662 75.1111 16.4825 75.6136 17.3825C76.1236 18.2825 76.3786 19.28 76.3786 20.375C76.3786 21.1925 76.2324 21.9575 75.9399 22.67C75.6474 23.3825 75.2424 24.0125 74.7249 24.56C74.2149 25.1 73.6186 25.5237 72.9361 25.8312C72.2611 26.1388 71.5336 26.2925 70.7536 26.2925ZM70.7536 23.9525C71.3761 23.9525 71.9349 23.7875 72.4299 23.4575C72.9249 23.1275 73.3149 22.6925 73.5999 22.1525C73.8924 21.605 74.0386 21.0125 74.0386 20.375C74.0386 19.7225 73.8886 19.1225 73.5886 18.575C73.2961 18.0275 72.9024 17.5925 72.4074 17.27C71.9124 16.94 71.3611 16.775 70.7536 16.775C70.1386 16.775 69.5799 16.94 69.0774 17.27C68.5824 17.6 68.1886 18.0387 67.8961 18.5862C67.6111 19.1337 67.4686 19.73 67.4686 20.375C67.4686 21.0425 67.6186 21.6462 67.9186 22.1862C68.2186 22.7262 68.6161 23.1575 69.1111 23.48C69.6136 23.795 70.1611 23.9525 70.7536 23.9525ZM81.7352 12.1962V14.75H84.9077V17.09H81.7352V26H79.3952V17.09H78.0564V14.75H79.3952V12.1962C79.3952 11.5812 79.5452 11.0225 79.8452 10.52C80.1452 10.01 80.5464 9.605 81.0489 9.305C81.5589 9.005 82.1252 8.855 82.7477 8.855C83.1977 8.855 83.6364 8.945 84.0639 9.125C84.4914 9.305 84.8739 9.5825 85.2114 9.9575L83.5352 11.6112C83.4527 11.4762 83.3364 11.375 83.1864 11.3075C83.0439 11.2325 82.8977 11.195 82.7477 11.195C82.4702 11.195 82.2302 11.2925 82.0277 11.4875C81.8327 11.6825 81.7352 11.9187 81.7352 12.1962ZM87.0942 14.75H89.4342V26H87.0942V14.75ZM88.2867 13.1187C87.9267 13.1187 87.6267 13.0025 87.3867 12.77C87.1467 12.5375 87.0267 12.245 87.0267 11.8925C87.0267 11.5475 87.1467 11.2587 87.3867 11.0262C87.6267 10.7862 87.923 10.6662 88.2755 10.6662C88.6205 10.6662 88.913 10.7862 89.153 11.0262C89.393 11.2587 89.513 11.5475 89.513 11.8925C89.513 12.245 89.393 12.5375 89.153 12.77C88.9205 13.0025 88.6317 13.1187 88.2867 13.1187ZM98.516 17.09H96.1535L96.1422 26H93.8022L93.8135 17.09H92.0247V14.75H93.8135L93.8022 11.2175H96.1422L96.1535 14.75H98.516V17.09ZM100.98 26V10.25H106.403C107.25 10.25 108.015 10.46 108.698 10.88C109.388 11.3 109.935 11.8662 110.34 12.5787C110.753 13.2912 110.959 14.0787 110.959 14.9412C110.959 15.8187 110.749 16.6137 110.329 17.3262C109.916 18.0312 109.365 18.5937 108.675 19.0137C107.985 19.4337 107.228 19.6438 106.403 19.6438H103.32V26H100.98ZM103.32 17.3037H106.166C106.616 17.3037 107.025 17.1912 107.393 16.9662C107.768 16.7412 108.064 16.4412 108.281 16.0662C108.506 15.6912 108.619 15.2675 108.619 14.795C108.619 14.3225 108.506 13.8987 108.281 13.5237C108.064 13.1412 107.768 12.8412 107.393 12.6237C107.025 12.3987 106.616 12.2862 106.166 12.2862H103.32V17.3037ZM121.455 14.75H123.795V26H121.443L121.353 24.3687C121.023 24.9462 120.577 25.4112 120.015 25.7637C119.452 26.1162 118.788 26.2925 118.023 26.2925C117.198 26.2925 116.422 26.1388 115.695 25.8312C114.967 25.5162 114.326 25.0812 113.771 24.5262C113.223 23.9712 112.796 23.3337 112.488 22.6137C112.181 21.8862 112.027 21.1062 112.027 20.2737C112.027 19.4712 112.177 18.7175 112.477 18.0125C112.777 17.3 113.193 16.6775 113.726 16.145C114.258 15.6125 114.873 15.1962 115.571 14.8962C116.276 14.5887 117.03 14.435 117.832 14.435C118.65 14.435 119.37 14.6225 119.992 14.9975C120.622 15.365 121.143 15.8375 121.556 16.415L121.455 14.75ZM117.967 24.0312C118.627 24.0312 119.205 23.87 119.7 23.5475C120.195 23.2175 120.577 22.775 120.847 22.22C121.125 21.665 121.263 21.05 121.263 20.375C121.263 19.6925 121.125 19.0737 120.847 18.5187C120.57 17.9637 120.183 17.525 119.688 17.2025C119.201 16.8725 118.627 16.7075 117.967 16.7075C117.315 16.7075 116.718 16.8725 116.178 17.2025C115.638 17.5325 115.211 17.975 114.896 18.53C114.581 19.085 114.423 19.7 114.423 20.375C114.423 21.0575 114.585 21.6762 114.907 22.2312C115.237 22.7787 115.668 23.2175 116.201 23.5475C116.741 23.87 117.33 24.0312 117.967 24.0312ZM132.429 17.09H130.067L130.056 26H127.716L127.727 17.09H125.938V14.75H127.727L127.716 11.2175H130.056L130.067 14.75H132.429V17.09ZM145.019 18.9462V26H142.679V19.52C142.679 19.0175 142.555 18.56 142.307 18.1475C142.067 17.735 141.741 17.4087 141.329 17.1687C140.924 16.9212 140.466 16.7975 139.956 16.7975C139.461 16.7975 139.007 16.9212 138.595 17.1687C138.182 17.4087 137.852 17.735 137.605 18.1475C137.357 18.56 137.234 19.0175 137.234 19.52V26H134.894V9.125H137.234V15.9425C137.624 15.4775 138.104 15.11 138.674 14.84C139.244 14.57 139.859 14.435 140.519 14.435C141.351 14.435 142.109 14.6375 142.791 15.0425C143.474 15.4475 144.014 15.9912 144.411 16.6737C144.816 17.3562 145.019 18.1137 145.019 18.9462Z" fill="#001432"/>
<defs>
<clipPath id="clip0_31_265">
<rect width="36" height="36" fill="white"/>
</clipPath>
</defs>
</svg>
